# xmcd CD database file
#
# Track frame offsets:
#	150
#	16499
#	38663
#	59448
#	82992
#	103144
#	125510
#	150749
#	168647
#	191893
#
# Disc length: 2860 seconds
#
# Revision: 0
# Processed by: cddbd v1.5.2PL0 Copyright (c) Steve Scherf et al.
# Submitted via: CDex 1.79
#
DISCID=830b2a0a
DTITLE=Arno Haas - Magic Hands
DYEAR=2013
DGENRE=Jazz
TTITLE0=You Better Watch Out
TTITLE1=A Leap Of Faith
TTITLE2=Don't Doubt My Love
TTITLE3=B Dong C
TTITLE4=Night Moves
TTITLE5=One MoreDance
TTITLE6=Magic Hands
TTITLE7=Spin Circle
TTITLE8=Sahara Nights
TTITLE9=All For You
EXTD=YEAR: 2013
EXTT0=
EXTT1=
EXTT2=
EXTT3=
EXTT4=
EXTT5=
EXTT6=
EXTT7=
EXTT8=
EXTT9=
PLAYORDER=
